<svg xmlns="http://www.w3.org/2000/svg" viewBox="0 0 848 1264" role="img" aria-labelledby="title desc">
  <title id="title">LLM's</title>
  <desc id="desc">Cambridge-style technical book cover for LLM's by Ozgur Guler.</desc>
  <rect width="848" height="1264" fill="#f3efe5"/>
  <rect x="0" y="0" width="848" height="132" fill="#18342d"/>
  <rect x="0" y="1132" width="848" height="132" fill="#18342d"/>
  <rect x="0" y="132" width="848" height="8" fill="#b89a57"/>
  <rect x="0" y="1124" width="848" height="8" fill="#b89a57"/>
  <g fill="none" stroke="#18342d" stroke-width="4" opacity=".72">
    <path d="M208 658c68-202 364-202 432 0"/>
    <path d="M240 580c96-118 272-118 368 0"/>
    <path d="M292 498c82-58 182-58 264 0"/>
    <path d="M222 706h404M266 768h316M330 830h188"/>
    <circle cx="424" cy="382" r="28"/><circle cx="292" cy="498" r="16"/><circle cx="556" cy="498" r="16"/>
  </g>
  <g fill="#18342d" text-anchor="middle">
    <text x="424" y="83" font-family="Menlo, monospace" font-size="31" letter-spacing="9">BOOK 05</text>
    <text x="424" y="930" font-family="Georgia, serif" font-size="104" font-style="italic">LLM's</text>
    <text x="424" y="1082" font-family="Georgia, serif" font-size="32" letter-spacing="2">Ozgur Guler</text>
    <text x="424" y="1212" fill="#f3efe5" font-family="Menlo, monospace" font-size="24" letter-spacing="8">GOOGLE DOC</text>
  </g>
</svg>
