<svg xmlns="http://www.w3.org/2000/svg" viewBox="0 0 400 600" role="img" aria-labelledby="title desc">
  <title id="title">Modern LLMs cover placeholder</title>
  <desc id="desc">Minimal technical cover with reasoning traces and model blocks.</desc>
  <rect width="400" height="600" fill="#f8f8f6"/>
  <rect x="32" y="32" width="336" height="536" fill="none" stroke="#d9d9d4"/>
  <g fill="none" stroke="#215f63" stroke-width="2">
    <path d="M76 160c48-54 96 54 144 0s96 54 144 0"/>
    <path d="M76 220c48-54 96 54 144 0s96 54 144 0"/>
    <path d="M76 280c48-54 96 54 144 0s96 54 144 0"/>
  </g>
  <g fill="#ffffff" stroke="#161616">
    <rect x="84" y="332" width="64" height="44"/>
    <rect x="168" y="332" width="64" height="44"/>
    <rect x="252" y="332" width="64" height="44"/>
  </g>
  <text x="56" y="434" fill="#161616" font-family="Inter, Arial, sans-serif" font-size="42" font-weight="700">
    <tspan x="56" dy="0">Modern</tspan>
    <tspan x="56" dy="48">LLMs</tspan>
  </text>
  <text x="56" y="540" fill="#626262" font-family="Inter, Arial, sans-serif" font-size="18">Özgür Güler</text>
</svg>
